<svg xmlns="http://www.w3.org/2000/svg" width="13" height="13" viewBox="0 0 13 13">
    <path fill="#393939" fill-rule="nonzero" d="M12.029 9.81L9.91 8.963a.411.411 0 0 1-.152-.154h1.413c.025.001.608.05 1.075-.135a.605.605 0 0 0 .362-.381.556.556 0 0 0-.092-.505c-.404-.53-1.348-1.918-1.377-3.324 0-.025-.086-2.417-2.646-2.436a3.272 3.272 0 0 0-1.042.17 1.643 1.643 0 0 0-.322-.492C6.685 1.238 5.963 1 4.983 1c-.98 0-1.701.238-2.146.706a1.696 1.696 0 0 0-.454 1.305v1.064a.764.764 0 0 0-.216.525v.8c0 .243.12.47.324.622.198.725.614 1.272.759 1.447v.662a.524.524 0 0 1-.298.464l-1.933.973C.39 9.885 0 10.492 0 11.152V12H13v-.74c0-.618-.372-1.173-.971-1.45zM9.533 11.6h-9.1v-.448c0-.514.304-.986.793-1.232l1.933-.974a.92.92 0 0 0 .524-.815v-.804l-.05-.055a3.682 3.682 0 0 1-.739-1.413l-.02-.08-.074-.044a.393.393 0 0 1-.2-.335v-.8c0-.112.052-.217.145-.295l.072-.06V3l-.002-.026c0-.006-.075-.56.347-1.004.36-.378.972-.57 1.821-.57.846 0 1.458.19 1.817.566a1.264 1.264 0 0 1 .324.615l.008.042.008.045a.923.923 0 0 1 .012.102v.006a1.74 1.74 0 0 1 .004.117v.006c0 .047-.004.075-.004.075L7.15 4.246l.071.06a.382.382 0 0 1 .146.294v.8a.403.403 0 0 1-.308.38l-.108.03-.035.1c-.145.416-.351.8-.614 1.142a2.671 2.671 0 0 1-.181.216l-.054.057v.825c0 .05.005.1.014.149l.006.03a.88.88 0 0 0 .104.266l.008.013c.031.052.067.1.109.145l.05.056h.008c.074.068.16.127.256.171l2.07.956c.52.239.841.72.841 1.255v.409zm3.034 0h-2.6v-.409c0-.687-.414-1.306-1.08-1.613L7.4 8.892a.317.317 0 0 0 .01-.251.369.369 0 0 0-.353-.232h-.48c-.01-.016-.017-.034-.025-.051-.011-.023-.024-.046-.031-.07A.485.485 0 0 1 6.5 8.15v-.677a4.456 4.456 0 0 0 .796-1.35A.793.793 0 0 0 7.8 5.4v-.8a.764.764 0 0 0-.217-.525V3.011c.006-.05.018-.214-.018-.428.28-.1.592-.153.93-.156 2.132.017 2.21 1.963 2.212 2.045.032 1.516 1.028 2.985 1.455 3.546a.182.182 0 0 1 .03.165.191.191 0 0 1-.116.123c-.364.145-.857.104-.883.103H9.702a.406.406 0 0 0-.34.175.34.34 0 0 0-.018.356.863.863 0 0 0 .384.386l2.112.844c.448.21.727.626.727 1.09v.34z"/>
</svg>
