<svg xmlns="http://www.w3.org/2000/svg" width="35" height="35" viewBox="0 0 35 35">
    <g fill="#EA1C49" fill-rule="nonzero">
        <path d="M17.628 22.247c-.156-.008-.27.1-.271.227a.858.858 0 0 1-.315.637c-.42.36-1.1.359-1.517 0-.418-.36-.418-.944 0-1.303a.208.208 0 0 0 0-.326.3.3 0 0 0-.379 0c-.627.54-.628 1.417 0 1.955.313.27.725.405 1.137.404.412 0 .825-.134 1.139-.404.297-.257.465-.596.47-.957.003-.127-.115-.231-.264-.233zM15.401 14.54a1.301 1.301 0 0 0-.932-.406c-.773 0-1.403.726-1.403 1.618 0 .892.63 1.618 1.403 1.618.13 0 .234-.12.234-.27 0-.149-.104-.27-.234-.27-.515 0-.935-.483-.935-1.078 0-.595.42-1.079.935-1.079.23 0 .451.096.621.271a.213.213 0 0 0 .33-.023.3.3 0 0 0-.019-.38zM13.549 18.179c-.71 0-1.287.374-1.287.835 0 .332.303.633.772.765a.487.487 0 0 0 .128.018c.124 0 .243-.047.295-.126.07-.106-.004-.228-.167-.275-.234-.066-.385-.216-.385-.382 0-.23.289-.418.644-.418.178 0 .322-.093.322-.209 0-.115-.144-.208-.322-.208z"/>
        <path d="M13.684 15.777c-.726-.156-1.422.434-1.422 1.189 0 .669.527 1.213 1.175 1.213.13 0 .235-.109.235-.243a.239.239 0 0 0-.235-.243.717.717 0 0 1-.705-.727c0-.454.419-.807.855-.714a.234.234 0 0 0 .279-.188.243.243 0 0 0-.182-.287zM16.686 12.516c-.665 0-1.206.545-1.206 1.215a1.21 1.21 0 0 0 1.206 1.212.242.242 0 0 0 .242-.243.242.242 0 0 0-.242-.242.727.727 0 1 1 0-1.456c.4 0 .724.327.724.729a.242.242 0 1 0 .483 0c0-.67-.541-1.215-1.207-1.215zM19.836 21.482a.3.3 0 0 0-.38 0 .208.208 0 0 0 0 .326c.418.36.418.943 0 1.303-.416.36-1.097.36-1.517 0a.86.86 0 0 1-.314-.637c-.003-.127-.122-.232-.272-.227-.148.002-.267.106-.265.233.006.36.174.7.472.957.314.27.725.404 1.138.404.412 0 .824-.135 1.138-.404.627-.539.627-1.416 0-1.955zM20.512 14.134c-.345 0-.675.144-.932.407a.3.3 0 0 0-.02.38c.086.112.234.121.33.023a.867.867 0 0 1 .622-.27c.516 0 .935.483.935 1.078 0 .595-.42 1.079-.935 1.079-.13 0-.234.12-.234.27 0 .148.105.269.234.269.774 0 1.403-.726 1.403-1.618 0-.892-.63-1.618-1.403-1.618zM21.432 18.179c-.177 0-.321.093-.321.208 0 .116.144.21.321.21.356 0 .644.187.644.417 0 .166-.15.316-.385.382-.163.047-.237.17-.166.275.052.079.171.126.294.126a.489.489 0 0 0 .129-.018c.468-.132.771-.433.771-.765 0-.46-.576-.835-1.287-.835z"/>
        <path d="M21.297 15.777a.243.243 0 0 0-.181.287c.025.132.15.216.278.188.437-.094.855.26.855.714a.717.717 0 0 1-.705.727.24.24 0 0 0-.236.243.24.24 0 0 0 .236.243c.648 0 1.175-.544 1.175-1.213 0-.755-.694-1.345-1.422-1.189zM18.295 12.516c-.665 0-1.207.545-1.207 1.215a.242.242 0 1 0 .483 0c0-.402.325-.73.724-.73.4 0 .724.328.724.73a.726.726 0 0 1-.724.727.242.242 0 0 0 0 .485 1.21 1.21 0 0 0 1.207-1.212c0-.67-.541-1.215-1.207-1.215zM22.044 18.771a2.462 2.462 0 0 0-1.63-.592c-.615 0-1.195.21-1.632.593a.231.231 0 0 0 0 .357.318.318 0 0 0 .408 0 1.851 1.851 0 0 1 1.224-.445c.46 0 .895.158 1.222.445.676.591.676 1.554.001 2.144a1.89 1.89 0 0 1-1.491.427c-.156-.02-.305.073-.33.211-.024.138.083.267.24.289.118.015.235.023.352.023.609 0 1.201-.21 1.637-.592.9-.788.899-2.071-.001-2.86zM22.451 27.077h-9.117c-.148 0-.268.109-.268.243v3.397c0 .065.029.126.079.172l1.073.97c.05.046.118.072.19.072h6.97c.072 0 .14-.026.19-.072l1.073-.97a.232.232 0 0 0 .078-.172V27.32c0-.134-.12-.243-.268-.243zm-.268 3.54l-.915.828h-6.75l-.915-.828v-3.055h8.58v3.055z"/>
        <path d="M22.465 28.695l-9.17.404c-.133.007-.235.102-.228.213.006.108.113.192.24.192h.013l9.17-.405c.134-.006.237-.1.229-.212-.007-.112-.118-.194-.254-.192zM22.465 29.504l-9.17.404c-.133.007-.235.101-.228.213.006.108.113.192.24.192h.013l9.17-.405c.134-.006.237-.1.229-.212-.007-.112-.118-.197-.254-.192zM17.893 10.09c-4.88 0-8.849 3.877-8.849 8.643 0 3.003 1.554 5.73 4.164 7.323v1.576c0 .14.117.254.26.254h8.85c.143 0 .26-.114.26-.254v-1.576c2.61-1.593 4.163-4.32 4.163-7.323 0-4.766-3.97-8.644-8.848-8.644zm4.29 15.606a.252.252 0 0 0-.126.218v1.463h-8.328v-1.463a.252.252 0 0 0-.126-.218c-2.528-1.49-4.038-4.093-4.038-6.963 0-4.485 3.736-8.135 8.328-8.135 4.592 0 8.328 3.65 8.328 8.135 0 2.871-1.51 5.474-4.038 6.963zM20.957 31.96a.29.29 0 0 0-.379.117c-.02.038-.531.932-2.283.932-1.75 0-2.261-.891-2.283-.932a.288.288 0 0 0-.377-.118.265.265 0 0 0-.126.362c.027.05.666 1.228 2.786 1.228s2.76-1.178 2.786-1.228a.264.264 0 0 0-.124-.36zM6.375 18.179h-5.12c-.14 0-.255.18-.255.404 0 .224.114.405.256.405h5.119c.141 0 .256-.181.256-.405 0-.223-.115-.404-.256-.404zM33.725 18.179h-5.119c-.142 0-.256.18-.256.404 0 .224.114.405.256.405h5.12c.14 0 .255-.181.255-.405 0-.223-.115-.404-.256-.404zM8.206 23.976a.24.24 0 0 0-.34-.099l-4.328 2.697a.282.282 0 0 0-.091.368.238.238 0 0 0 .341.099l4.327-2.696c.12-.075.16-.24.091-.369zM31.534 10.224a.24.24 0 0 0-.34-.099l-4.327 2.697a.281.281 0 0 0-.092.368.238.238 0 0 0 .342.099l4.327-2.696a.282.282 0 0 0 .09-.369zM25.803 4.46a.277.277 0 0 0-.366.093l-2.681 4.35a.242.242 0 0 0 .098.344.28.28 0 0 0 .366-.092l2.68-4.351a.243.243 0 0 0-.097-.343zM17.892 2.257c0-.142-.18-.257-.402-.257-.222 0-.402.115-.402.257l.001 5.148c0 .142.18.258.402.258.222 0 .402-.116.402-.258V2.257zM12.226 8.904L9.544 4.553a.278.278 0 0 0-.366-.092.243.243 0 0 0-.098.343l2.682 4.35c.049.082.14.126.232.126.045 0 .091-.01.134-.033a.243.243 0 0 0 .098-.343zM31.444 26.574l-4.327-2.697a.24.24 0 0 0-.342.1.281.281 0 0 0 .092.368l4.327 2.696a.236.236 0 0 0 .125.036c.085 0 .17-.048.215-.135a.282.282 0 0 0-.09-.368zM8.115 12.822l-4.327-2.697a.24.24 0 0 0-.341.099.281.281 0 0 0 .091.369l4.327 2.696c.04.024.083.036.125.036.086 0 .17-.048.216-.135a.281.281 0 0 0-.091-.368z"/>
        <path d="M17.49 14.134c-.222 0-.402.12-.402.27v8.36c0 .148.18.268.403.268.222 0 .402-.12.402-.269v-8.36c0-.149-.18-.269-.402-.269z"/>
        <path d="M18.375 20.201c-.431 0-.673-.29-.677-.293-.08-.1-.273-.14-.431-.09-.16.05-.224.17-.145.27.017.022.419.518 1.253.518.178 0 .322-.09.322-.203 0-.112-.144-.202-.322-.202z"/>
        <path d="M17.716 19.818c-.158-.05-.352-.01-.433.089-.002.003-.245.294-.677.294-.178 0-.322.09-.322.202 0 .112.144.203.322.203.835 0 1.237-.496 1.253-.518.08-.1.014-.22-.143-.27zM18.467 16.83c-.88 0-.917-.728-.919-.81 0-.149-.103-.268-.23-.268s-.23.12-.23.27c0 .466.288 1.348 1.38 1.348.126 0 .23-.12.23-.27 0-.149-.104-.27-.23-.27z"/>
        <path d="M17.665 15.753c-.132-.012-.23.117-.232.266-.002.083-.038.811-.919.811-.127 0-.23.121-.23.27 0 .15.103.27.23.27 1.09 0 1.379-.882 1.379-1.349 0-.148-.102-.267-.228-.268zM16.2 18.772a2.466 2.466 0 0 0-1.632-.593c-.616 0-1.195.21-1.63.592-.9.789-.901 2.072-.002 2.86.436.381 1.03.592 1.636.592.118 0 .236-.008.353-.023.157-.022.265-.151.24-.289-.024-.138-.174-.23-.329-.21a1.895 1.895 0 0 1-1.492-.428c-.675-.59-.674-1.553.001-2.144a1.848 1.848 0 0 1 1.222-.445c.462 0 .897.158 1.225.445a.318.318 0 0 0 .407 0 .231.231 0 0 0 0-.357z"/>
    </g>
</svg>
