<svg xmlns="http://www.w3.org/2000/svg" width="35" height="35" viewBox="0 0 35 35">
    <path fill="#EA1C49" fill-rule="nonzero" d="M30.496 11c-1.932 0-3.504 1.508-3.504 3.36 0 .677.21 1.306.57 1.834l-3.786 3.63a3.59 3.59 0 0 0-1.911-.546c-.73 0-1.409.216-1.97.584l-3.825-3.669c.36-.527.569-1.157.569-1.832 0-1.853-1.572-3.361-3.504-3.361S9.63 12.508 9.63 14.36c0 .676.21 1.306.569 1.833l-3.786 3.631a3.59 3.59 0 0 0-1.91-.546C2.572 19.278 1 20.786 1 22.64 1 24.492 2.572 26 4.504 26s3.504-1.508 3.504-3.36c0-.677-.21-1.306-.57-1.834l3.786-3.63a3.59 3.59 0 0 0 1.911.546 3.59 3.59 0 0 0 1.91-.546l3.846 3.689a3.24 3.24 0 0 0-.53 1.774c0 1.853 1.572 3.36 3.504 3.36s3.504-1.507 3.504-3.36c0-.676-.21-1.305-.569-1.832l3.786-3.631a3.59 3.59 0 0 0 1.91.545c1.932 0 3.504-1.507 3.504-3.36S32.428 11 30.496 11zM4.504 24.61c-1.134 0-2.056-.884-2.056-1.97 0-1.088.922-1.972 2.056-1.972 1.133 0 2.055.884 2.055 1.971 0 1.087-.922 1.972-2.055 1.972zm8.631-8.278c-1.133 0-2.056-.884-2.056-1.971 0-1.087.922-1.972 2.056-1.972 1.133 0 2.056.885 2.056 1.972s-.923 1.971-2.056 1.971zm8.73 8.279c-1.133 0-2.056-.885-2.056-1.972s.923-1.971 2.056-1.971 2.056.884 2.056 1.971c0 1.087-.923 1.972-2.056 1.972zm8.631-8.279c-1.133 0-2.056-.884-2.056-1.971 0-1.087.923-1.972 2.056-1.972s2.056.885 2.056 1.972-.923 1.971-2.056 1.971z"/>
</svg>
