<svg xmlns="http://www.w3.org/2000/svg" width="13" height="13" viewBox="0 0 13 13">
    <g fill="#393939" fill-rule="nonzero" transform="translate(1)">
        <ellipse cx="5.5" cy="5.633" rx="1" ry="1"/>
        <ellipse cx="5.5" cy="5.633" rx="1" ry="1"/>
        <ellipse cx="5.5" cy="5.633" rx="1" ry="1"/>
        <ellipse cx="5.5" cy="5.633" rx="1" ry="1"/>
        <ellipse cx="4.654" cy="4.767" rx="1" ry="1"/>
        <ellipse cx="7.192" cy="4.767" rx="1" ry="1"/>
        <ellipse cx="3.808" cy="4.767" rx="1" ry="1"/>
        <ellipse cx="6.346" cy="4.767" rx="1" ry="1"/>
        <ellipse cx="5.5" cy="7.367" rx="1" ry="1"/>
        <ellipse cx="5.5" cy="8.233" rx="1" ry="1"/>
        <ellipse cx="5.5" cy="8.233" rx="1" ry="1"/>
        <ellipse cx="5.5" cy="9.967" rx="1" ry="1"/>
        <ellipse cx="5.5" cy="10.833" rx="1" ry="1"/>
        <ellipse cx="5.5" cy="11.7" rx="1" ry="1"/>
        <path d="M10.78 12.567h-.66V11.7h-1.1V9.485c0-.585-.295-1.128-.79-1.453L5.897 6.5 8.23 4.968c.495-.325.79-.868.79-1.453V1.3h1.1V.433h.66c.121 0 .22-.097.22-.216A.218.218 0 0 0 10.78 0H.22A.218.218 0 0 0 0 .217c0 .12.099.216.22.216h.66V1.3h1.1v2.215c0 .585.295 1.128.79 1.453L5.103 6.5 2.77 8.032c-.495.325-.79.868-.79 1.453V11.7H.88v.867H.22a.218.218 0 0 0-.22.216c0 .12.099.217.22.217H10.78c.121 0 .22-.097.22-.217a.218.218 0 0 0-.22-.216zM1.32.867V.433h8.36v.434H1.32zm1.694 3.74a1.306 1.306 0 0 1-.594-1.092V1.3h6.16v2.215c0 .44-.222.848-.594 1.092L5.5 6.24 3.014 4.607zM2.42 9.485c0-.44.222-.848.594-1.092L5.5 6.76l2.486 1.633c.372.244.594.652.594 1.092V11.7H2.42V9.485zm-1.1 2.648h8.36v.434H1.32v-.434z"/>
    </g>
</svg>
