<svg xmlns="http://www.w3.org/2000/svg" width="13" height="13" viewBox="0 0 13 13">
    <g fill="#393939" fill-rule="nonzero">
        <path d="M6.5 3C5.673 3 5 3.673 5 4.5S5.673 6 6.5 6 8 5.327 8 4.5 7.327 3 6.5 3zm0 2.571a1.073 1.073 0 0 1 0-2.142 1.073 1.073 0 0 1 0 2.142z"/>
        <path d="M9.683 2.231A4.637 4.637 0 0 0 6.5 1a4.636 4.636 0 0 0-3.182 1.231C1.745 3.7 1.55 6.463 2.895 8.137L6.5 13l3.6-4.856c1.351-1.68 1.156-4.444-.417-5.913zm.037 5.657L6.5 12.23 3.276 7.88c-1.22-1.519-1.045-4.015.374-5.34A4.153 4.153 0 0 1 6.5 1.438c1.077 0 2.09.392 2.85 1.103 1.42 1.325 1.595 3.821.37 5.347z"/>
    </g>
</svg>
