<svg xmlns="http://www.w3.org/2000/svg" width="35" height="35" viewBox="0 0 35 35">
    <g fill="#EA1C49" fill-rule="nonzero">
        <path d="M4.789 28.323l3.337-4.242a4.827 4.827 0 0 1-2.64-1.933c-.786-1.343-.43-2.982-.087-4.566a12.34 12.34 0 0 0 .372-2.483 12.336 12.336 0 0 0-.372-2.486C5.058 11.03 4.7 9.39 5.486 8.05 6.3 6.66 7.939 6.144 9.524 5.648c.789-.215 1.553-.511 2.28-.883.66-.423 1.272-.914 1.827-1.464C14.806 2.22 16.14 1 17.837 1c1.697 0 3.03 1.222 4.206 2.3.555.55 1.167 1.042 1.827 1.465.726.371 1.49.666 2.28.88 1.584.497 3.223 1.012 4.037 2.402.786 1.343.43 2.983.087 4.566a12.336 12.336 0 0 0-.371 2.486c.039.839.163 1.672.371 2.486.342 1.584.7 3.222-.087 4.563a4.827 4.827 0 0 1-2.643 1.932l3.34 4.243a.538.538 0 0 1-.096.76.553.553 0 0 1-.405.11l-3.921-.484-.968 3.35a.546.546 0 0 1-.527.392.55.55 0 0 1-.434-.209l-3.502-4.454a5.098 5.098 0 0 1-3.194 1.41 5.098 5.098 0 0 1-3.194-1.41L11.14 32.24a.55.55 0 0 1-.96-.182l-.968-3.348-3.922.484a.547.547 0 0 1-.612-.47.538.538 0 0 1 .11-.4zm19.947 2.41l.8-2.769a.548.548 0 0 1 .596-.389l3.07.38-2.752-3.499-.303.096c-.788.215-1.551.51-2.277.88-.66.424-1.272.915-1.827 1.465l-.189.172 2.882 3.664zm-6.9-2.62c1.268 0 2.333-.976 3.462-2.01a12.066 12.066 0 0 1 2.023-1.61 12.803 12.803 0 0 1 2.497-.975c1.45-.455 2.82-.885 3.42-1.912.574-.98.278-2.348-.036-3.796a13.14 13.14 0 0 1-.396-2.711c.037-.915.17-1.824.395-2.711.315-1.448.61-2.815.037-3.796-.603-1.027-1.97-1.457-3.42-1.912a12.807 12.807 0 0 1-2.497-.976A12.066 12.066 0 0 1 21.3 4.095c-1.13-1.034-2.195-2.01-3.462-2.01-1.267 0-2.333.976-3.462 2.01a12.066 12.066 0 0 1-2.023 1.61c-.795.41-1.632.738-2.497.975-1.45.455-2.819.885-3.42 1.912-.574.98-.278 2.348.037 3.796.226.887.358 1.796.396 2.71-.037.916-.17 1.824-.396 2.712-.314 1.448-.61 2.815-.037 3.796.604 1.027 1.971 1.457 3.42 1.912.865.237 1.702.564 2.497.976.73.463 1.409 1.002 2.023 1.609 1.13 1.034 2.195 2.01 3.462 2.01zm-8.297-.538a.548.548 0 0 1 .595.39l.803 2.768 2.882-3.663-.189-.172a11.122 11.122 0 0 0-1.826-1.465 11.823 11.823 0 0 0-2.28-.88l-.303-.097-2.753 3.499 3.071-.38z"/>
        <path d="M17.837 5.368c5.331 0 9.653 4.303 9.653 9.61 0 5.308-4.322 9.61-9.653 9.61-5.332 0-9.653-4.302-9.653-9.61.006-5.305 4.324-9.604 9.653-9.61zm0 18.153c4.739 0 8.58-3.825 8.58-8.543 0-4.717-3.841-8.542-8.58-8.542-4.74 0-8.58 3.825-8.58 8.542.005 4.716 3.843 8.537 8.58 8.543z"/>
        <path d="M11.028 13.155c.208-.277.54-.44.892-.44h3.38l1.049-3.116c.19-.561.814-.867 1.393-.682.333.106.595.359.704.682l1.047 3.116h3.382c.61 0 1.104.478 1.105 1.069 0 .342-.17.663-.455.865l-2.736 1.925 1.045 3.116a1.063 1.063 0 0 1-.708 1.347c-.337.106-.705.05-.99-.152l-2.739-1.924-2.736 1.925a1.117 1.117 0 0 1-1.298 0 1.036 1.036 0 0 1-.401-1.196l1.045-3.116-2.736-1.925a1.048 1.048 0 0 1-.243-1.494zm3.953 2.782a.526.526 0 0 1 .2.599l-1.17 3.485 3.062-2.154a.567.567 0 0 1 .649 0l3.06 2.154-1.168-3.485a.525.525 0 0 1 .2-.598l3.06-2.154h-3.782a.55.55 0 0 1-.525-.37l-1.17-3.485-1.169 3.485a.55.55 0 0 1-.525.37H11.92l3.06 2.153z"/>
    </g>
</svg>
