<svg xmlns="http://www.w3.org/2000/svg" width="11" height="12" viewBox="0 0 11 12">
    <g fill="#393939" fill-rule="nonzero">
        <path d="M1.426 3c.717 0 1.31-.56 1.41-1.286h7.96A.209.209 0 0 0 11 1.5a.209.209 0 0 0-.204-.214h-7.96C2.736.56 2.143 0 1.426 0 .64 0 0 .673 0 1.5S.64 3 1.426 3zm0-2.571c.562 0 1.018.48 1.018 1.071 0 .59-.456 1.071-1.018 1.071S.407 2.091.407 1.5C.407.91.864.429 1.426.429zM9.574 9c-.717 0-1.31.56-1.41 1.286H.204A.21.21 0 0 0 0 10.5a.21.21 0 0 0 .204.214h7.96c.1.726.693 1.286 1.41 1.286.786 0 1.426-.673 1.426-1.5S10.36 9 9.574 9zm0 2.571c-.562 0-1.018-.48-1.018-1.071 0-.59.456-1.071 1.018-1.071s1.019.48 1.019 1.071c0 .59-.457 1.071-1.019 1.071zM10.796 6.335H7.001C6.92 5.585 6.297 5 5.542 5c-.755 0-1.378.585-1.459 1.335H.203A.206.206 0 0 0 0 6.543c0 .115.091.208.204.208h3.892C4.214 7.46 4.816 8 5.542 8s1.328-.541 1.446-1.249h3.808A.206.206 0 0 0 11 6.543a.206.206 0 0 0-.204-.208zM5.542 7.584c-.585 0-1.06-.486-1.06-1.084 0-.598.475-1.084 1.06-1.084.585 0 1.06.486 1.06 1.084 0 .598-.475 1.084-1.06 1.084z"/>
    </g>
</svg>
