<svg xmlns="http://www.w3.org/2000/svg" width="16" height="16" viewBox="0 0 16 16">
    <g fill="#393939" fill-rule="nonzero">
        <path d="M12.599 3.39a7.6 7.6 0 0 1 .508.562c.377.494.69 1.033.933 1.605l-.074-.177c.247.592.416 1.214.5 1.85a7.134 7.134 0 0 1-.025-.197c.083.641.083 1.29 0 1.93l.026-.196a7.317 7.317 0 0 1-.501 1.85l.074-.178a7.295 7.295 0 0 1-.933 1.605l.116-.15c-.386.5-.835.95-1.334 1.337l.15-.116a7.387 7.387 0 0 1-1.602.935c.06-.024.118-.05.177-.074a7.273 7.273 0 0 1-1.845.502c.064-.01.13-.019.195-.026a7.444 7.444 0 0 1-1.925 0c.065.01.131.018.196.026a7.273 7.273 0 0 1-1.846-.502l.178.074a7.27 7.27 0 0 1-1.602-.935l.15.116a7.481 7.481 0 0 1-1.334-1.337l.116.15a7.412 7.412 0 0 1-.933-1.605l.074.178a7.317 7.317 0 0 1-.5-1.85c.008.064.018.131.025.196a7.495 7.495 0 0 1 0-1.93c-.01.065-.018.132-.026.197a7.317 7.317 0 0 1 .5-1.85c-.023.059-.049.118-.073.177a7.295 7.295 0 0 1 .933-1.605l-.116.15a7.481 7.481 0 0 1 1.184-1.22 7.387 7.387 0 0 1 1.602-.936l-.178.074a7.273 7.273 0 0 1 1.846-.501 7.444 7.444 0 0 1 1.73.026 7.086 7.086 0 0 0-.196-.026 7.273 7.273 0 0 1 1.845.501l-.177-.074a7.27 7.27 0 0 1 1.602.935l-.15-.116c.25.194.486.402.71.626.273.274.774.294 1.045 0 .27-.295.292-.756 0-1.048C12.495 1.196 10.99.39 9.386.124A7.987 7.987 0 0 0 7.037.063 8.214 8.214 0 0 0 5.77.317 8.532 8.532 0 0 0 4.582.77c-1.484.69-2.75 1.887-3.546 3.315C.261 5.478-.104 7.12.054 8.711c.08.828.271 1.622.593 2.389a8.11 8.11 0 0 0 1.323 2.137 7.937 7.937 0 0 0 4.109 2.528c1.539.376 3.203.302 4.689-.263.399-.152.789-.326 1.16-.537.382-.217.737-.47 1.08-.743a7.933 7.933 0 0 0 1.67-1.839 7.988 7.988 0 0 0 1.302-4.55c-.037-1.602-.55-3.207-1.5-4.502a8.713 8.713 0 0 0-.836-.988c-.273-.274-.776-.295-1.045 0-.272.296-.292.755 0 1.048z"/>
        <path d="M10.71 5.513L9.271 6.956l-2.29 2.296-.522.522h1.046L5.593 7.852l-.268-.27c-.274-.275-.776-.295-1.046 0-.272.296-.292.753 0 1.048l1.912 1.922.268.27a.75.75 0 0 0 1.046 0l1.44-1.442 2.29-2.297.521-.522c.274-.274.294-.778 0-1.048-.295-.27-.754-.293-1.046 0z"/>
    </g>
</svg>
