<svg xmlns="http://www.w3.org/2000/svg" width="13" height="13" viewBox="0 0 13 13">
    <path fill="#393939" fill-rule="nonzero" d="M11.8 5.198h-1.2c-.11 0-.2.097-.2.216v.65c0 .12.09.216.2.216h.4v1.3c0 .183-.002.387-.44.426a.713.713 0 0 0 .04-.23V7.6c0-.37-.277-.67-.619-.67H7.6V4.764h1.363c.572 0 1.036-.503 1.037-1.123V1.53C10 .685 9.367 0 8.588 0H5.413C4.633 0 4 .685 4 1.53V3.64c0 .62.465 1.123 1.038 1.123H6.4V6.93H4.019c-.342 0-.618.3-.619.67v.176a.71.71 0 0 0 .04.23C3.002 7.97 3 7.784 3 7.72V6.28h.4c.11 0 .2-.097.2-.216v-.65c0-.12-.09-.216-.2-.216H2.2c-.11 0-.2.097-.2.216v.65c0 .12.09.216.2.216h.4V7.72c0 .272.13.727 1 .727H4l.006-.001.013.001h2.374v2.815H3.6c-.11 0-.2.097-.2.217s.09.217.2.217h.2v.04a.553.553 0 0 0-.2-.04c-.333-.002-.604.289-.606.65-.001.36.267.653.6.655.333.002.604-.29.606-.65a.706.706 0 0 0-.014-.145.233.233 0 0 0 .014-.077v-.433h2.365a.188.188 0 0 0 .035.007v.426c0 .026.005.053.015.077a.69.69 0 0 0-.015.14c-.002.358.266.65.597.652.331.002.601-.288.603-.646.001-.331-.227-.61-.53-.649h.13a.188.188 0 0 0 .035-.007H9.6v.433c0 .026.005.053.015.077a.69.69 0 0 0-.015.14c0 .358.269.649.6.649.331 0 .6-.29.6-.65 0-.359-.269-.65-.6-.65a.552.552 0 0 0-.2.04v-.04h.2c.11 0 .2-.096.2-.216s-.09-.217-.2-.217H7.607V8.446h2.374l.013-.001.006.001h.4c.247 0 1 0 1-.866v-1.3h.4c.11 0 .2-.097.2-.216v-.65c0-.12-.09-.216-.2-.216zm-9.4.65V5.63h.8v.216h-.8zm1.2 6.713c-.11 0-.2-.097-.2-.217s.09-.216.2-.216c.11 0 .2.097.2.216 0 .12-.09.217-.2.217zm6.6-.433c.11 0 .2.097.2.216 0 .12-.09.217-.2.217-.11 0-.2-.097-.2-.217s.09-.216.2-.216zM5.038 4.33c-.352 0-.638-.309-.638-.69V1.53C4.4.924 4.854.434 5.413.433h3.175c.559 0 1.011.491 1.012 1.097V3.64c0 .381-.286.69-.637.69H5.038zm2.162.433V6.93h-.4V4.764h.4zm-.393 6.49v-2.8h.386v2.8h-.386zm.323.448a.334.334 0 0 0-.13.1v-.1h.13zm.27.642c0 .12-.09.217-.2.217-.11 0-.2-.097-.2-.217s.09-.216.2-.216c.11 0 .2.097.2.216zm2.8-4.568c0 .13-.098.236-.219.237H7.435a.188.188 0 0 0-.035-.008h-.8a.188.188 0 0 0-.035.008H4.02c-.12 0-.218-.106-.219-.237V7.6c0-.13.098-.236.219-.237H9.98c.12 0 .218.107.219.237v.176zm1.4-1.929h-.8v-.216h.8v.216z"/>
</svg>
