<svg xmlns="http://www.w3.org/2000/svg" width="13" height="13" viewBox="0 0 13 13">
    <g fill="none" fill-rule="evenodd">
        <g fill="#393939" fill-rule="nonzero">
            <path d="M7.333 2.2c-.092 0-.166.086-.166.192v4.423h-2.5c-.092 0-.167.086-.167.193 0 .106.075.192.167.192h2.666c.092 0 .167-.086.167-.192V2.392c0-.106-.075-.192-.167-.192z"/>
            <path d="M7 0C3.692 0 1 2.692 1 6s2.692 6 6 6 6-2.692 6-6-2.692-6-6-6zm0 11.6A5.606 5.606 0 0 1 1.4 6C1.4 2.912 3.912.4 7 .4c3.088 0 5.6 2.512 5.6 5.6 0 3.088-2.512 5.6-5.6 5.6z"/>
        </g>
    </g>
</svg>
